<svg width="111" height="112" viewBox="0 0 111 112" fill="none" xmlns="http://www.w3.org/2000/svg">
<g clip-path="url(#clip0_99_395)">
<path d="M55.2536 13.9283C54.7008 13.9283 54.1569 13.944 53.6108 13.9619C74.9228 14.8019 91.9435 32.424 91.9435 54.049C91.9435 75.6739 74.0703 94.1696 52.0235 94.1696C29.9767 94.1696 12.967 77.065 12.1323 55.6461C12.1101 56.1949 12.099 56.7459 12.099 57.297C12.099 81.2515 31.4197 100.67 55.2558 100.67C79.0919 100.67 98.4126 81.2515 98.4126 57.297C98.4126 33.3424 79.0875 13.9283 55.2536 13.9283Z" fill="#CF9F67"/>
<path d="M47.7255 64.8032L39.3761 49.9184L35.5377 43.0752L32.9137 47.6851L45.0105 68.6605L47.7278 64.8032H47.7255Z" fill="url(#paint0_linear_99_395)"/>
<path d="M94.7718 28.0135V35.9565C93.8971 36.2723 92.9869 36.624 92.0478 37.0205C90.9556 37.4819 89.9277 37.9568 88.9709 38.4339C87.8254 39.0096 86.631 39.6592 85.4034 40.3895C84.5198 40.9136 83.6806 41.4445 82.8881 41.9687C82.0734 42.5152 81.2453 43.0954 80.3973 43.7181C79.4604 44.4035 78.5702 45.089 77.7288 45.761C76.4212 46.8182 75.1114 47.8755 73.8016 48.9351C73.1112 49.4592 72.403 50.0237 71.6838 50.624C70.7891 51.3722 69.9566 52.1158 69.1818 52.8416C67.488 54.544 65.7941 56.2464 64.1002 57.9488L59.749 62.6304L54.8495 68.5574L50.6781 73.8349L46.5689 79.1526L44.0603 82.9248L47.3947 87.7744C48.2095 86.511 49.2862 84.8826 50.5915 83.0166C52.5807 80.1718 54.1857 78.0797 55.2114 76.7491C56.2814 75.3581 57.72 73.4944 59.7291 71.1133C61.4118 69.1152 62.9081 67.4554 64.0803 66.1853L67.8587 62.2183L70.0365 59.9962L72.796 57.3597L75.0093 55.3482L77.1694 53.3927L79.5847 51.305L82.4685 49.065L86.0516 46.4195L89.3328 44.417L92.998 42.4682L96.5744 40.7523L98.9986 39.7287L101.254 38.9469L101.35 31.9827L101.521 25.3792C95.309 27.8611 94.7718 28.0179 94.7718 28.0179V28.0135Z" fill="url(#paint1_linear_99_395)"/>
<path d="M39.3761 49.9184L47.7277 64.8032L50.4117 60.9571L41.7759 46.2224L39.3783 49.9207L39.3761 49.9184Z" fill="#DC2627"/>
<path d="M107.836 29.7584L101.35 31.9827L101.254 38.9469C100.508 39.1799 99.5026 39.5226 98.3282 39.993C98.0773 40.0938 97.1871 40.4544 95.3822 41.3079C94.3055 41.8163 92.6983 42.5847 90.6092 43.7203C89.1019 44.5424 88.1206 45.0755 86.8197 45.9111C85.5943 46.6995 84.6663 47.4029 82.8548 48.776C81.1521 50.0663 79.951 50.9757 78.3882 52.2973C77.9863 52.6378 78.3548 52.3331 74.2301 56.0493C73.795 56.4413 72.6583 57.4672 71.3285 58.7351C70.6537 59.3802 70.243 59.7834 70.0343 59.9962C69.6502 60.3882 68.6424 61.432 67.1083 62.9754C66.8153 63.2688 66.5755 63.5107 66.4157 63.672C62.2843 68.0221 58.0929 72.8963 53.9859 78.3507C52.8071 79.9165 51.6749 81.4755 50.5938 83.0189L53.9437 88.0858C56.6965 84.1702 59.1674 80.976 61.1032 78.5702C62.3242 77.0538 63.7739 75.2618 65.8385 72.9613C67.7566 70.8243 69.1885 69.3885 71.4995 67.0656C74.2612 64.2925 76.0283 62.5139 78.6346 60.1799C80.1819 58.7911 82.3087 56.952 84.9216 54.8912C87.5368 52.8304 89.2106 51.5111 91.7392 49.9341C93.4486 48.8679 94.8805 48.0951 97.2271 46.8339C99.1385 45.8035 100.368 45.1427 102.053 44.3699C103.67 43.6263 105.654 42.8064 107.976 42.0291C107.927 37.9389 107.883 33.8487 107.841 29.7607L107.836 29.7584Z" fill="#DC2627"/>
<path d="M45.0082 68.6605C48.1029 64.2902 50.4694 60.881 52.0923 58.5222C53.2511 56.84 54.2124 55.4333 55.7108 53.4912C57.0762 51.7238 58.1795 50.4336 60.3307 47.9203C62.4774 45.4137 63.5475 44.1616 64.8728 42.7347C66.1537 41.3526 68.1029 39.2717 70.8779 36.7763C72.7516 35.0918 74.2701 33.88 75.2646 33.087C76.4279 32.1597 77.7066 31.1472 79.4982 29.9129C80.9944 28.8825 82.1178 28.2038 82.4086 28.0269C83.7805 27.2003 84.8572 26.6381 85.6564 26.2237C86.6044 25.7309 87.6611 25.1843 89.1219 24.5481C90.6004 23.903 91.7326 23.4998 92.0478 23.3878C93.089 23.0205 94.0014 22.7427 94.7429 22.5366C94.7518 27.0077 94.7607 31.4765 94.7695 35.9497C93.0557 36.5657 91.091 37.3721 88.9709 38.4249C88.2472 38.7856 85.8407 40.0041 82.8881 41.9597C80.9922 43.2185 79.638 44.2669 77.7288 45.752C76.2969 46.8675 75.2624 47.7187 73.8016 48.9261C71.4729 50.8435 70.3096 51.8045 69.1818 52.8326C67.599 54.2729 66.4113 55.5139 64.1002 57.9398C62.7971 59.3062 61.383 60.7891 59.749 62.6214C58.8832 63.5913 57.236 65.4662 50.8158 73.6467C47.2083 78.241 46.5556 79.1504 46.1205 79.7597C45.9961 79.9322 45.0837 81.3321 44.0581 82.9181C42.7372 84.9587 41.2298 87.3062 40.9634 87.7677L21.5206 53.7264L28.9909 40.8822L32.6628 47.255L45.006 68.6582L45.0082 68.6605Z" fill="#336FD2"/>
<path d="M15.6488 45.8125C17.0052 46.0679 17.4514 47.4343 16.9897 49.9139C16.9142 50.3149 16.7854 50.9533 16.6012 51.8359C16.1794 51.6791 15.1226 51.3184 13.4354 50.7562C12.301 50.3955 11.3309 50.129 10.5139 49.9565L10.6849 49.0359C10.7159 48.8746 10.7626 48.5901 10.8292 48.1779C10.8958 47.768 10.949 47.4544 10.989 47.2394C11.1155 46.5674 11.3198 46.0522 11.6106 45.6938C11.8992 45.3354 12.2522 45.1987 12.6762 45.2794C13.0314 45.3466 13.3267 45.537 13.5598 45.8483C13.7929 46.1597 13.9127 46.5293 13.9216 46.9549L13.9904 46.9728C14.1148 46.6099 14.319 46.3053 14.6054 46.0634C14.894 45.8215 15.2425 45.7386 15.6488 45.8147V45.8125ZM12.7517 46.825C12.2699 46.7331 11.9591 47.0557 11.8193 47.7882C11.7505 48.1555 11.7105 48.5005 11.6994 48.8253C11.8282 48.8499 12.3721 49.0067 13.3289 49.2957C13.3688 49.1299 13.3977 48.9709 13.4288 48.8208C13.653 47.6179 13.4288 46.9549 12.7539 46.8272L12.7517 46.825ZM15.4468 47.2685C14.8918 47.1655 14.5055 47.6986 14.2879 48.8679C14.2435 49.1098 14.2058 49.3427 14.1814 49.5623C14.8318 49.7706 15.4334 49.9475 15.984 50.0931C16.0373 49.9408 16.0906 49.7437 16.135 49.5063C16.2704 48.776 16.2837 48.2362 16.1683 47.8912C16.0528 47.5485 15.8131 47.3402 15.4445 47.2707L15.4468 47.2685Z" fill="#CF9F67"/>
<path d="M16.7766 37.9411C17.7134 38.2928 18.4083 38.9558 18.8545 39.9325C19.3007 40.9091 19.3251 41.9328 18.9277 43.0058C18.6258 43.8189 18.1219 44.3968 17.4137 44.7328C16.7077 45.0733 15.9663 45.0957 15.1937 44.8045C14.2458 44.4506 13.5531 43.783 13.1136 42.8042C12.674 41.8253 12.6518 40.8038 13.047 39.7376C13.3489 38.9245 13.8528 38.3488 14.5588 38.0106C15.2625 37.6746 16.004 37.6499 16.7788 37.9411H16.7766ZM16.337 39.3926C15.7931 39.1888 15.3025 39.1843 14.8629 39.3702C14.4234 39.5606 14.1148 39.8922 13.9394 40.3603C13.7107 40.9808 13.7796 41.5766 14.1503 42.1389C14.521 42.7056 15.0094 43.1021 15.6222 43.3306C16.1661 43.5344 16.6567 43.5434 17.1007 43.3552C17.5402 43.167 17.851 42.8378 18.0264 42.3674C18.2551 41.7491 18.184 41.1555 17.8066 40.5821C17.4292 40.0154 16.9408 39.6189 16.337 39.3904V39.3926Z" fill="#CF9F67"/>
<path d="M17.9798 30.4169C18.6613 30.9501 19.445 31.5593 20.3286 32.2448C21.312 33.0064 22.2289 33.6672 23.0858 34.2294L22.2866 35.5869C21.5651 34.9709 20.7126 34.2832 19.7292 33.5238C19.0476 32.9929 18.4771 32.5673 18.022 32.2425L17.5913 32.975C17.7622 33.1744 17.9421 33.3984 18.1241 33.6515C18.3084 33.9024 18.4926 34.1689 18.6724 34.4489C18.8567 34.7312 19.0321 35.0224 19.2008 35.3225C19.3695 35.6227 19.5271 35.9251 19.6648 36.2342C19.8069 36.5411 19.9267 36.8457 20.0289 37.1437C20.131 37.4438 20.2042 37.7305 20.2531 38.0105C20.2975 38.2883 20.313 38.5481 20.293 38.7923C20.2753 39.0342 20.2153 39.2493 20.1177 39.4352L19.1231 38.7296C19.1742 38.5997 19.1742 38.4115 19.1253 38.1696C19.0765 37.9232 18.9921 37.6432 18.87 37.3251C18.7457 37.007 18.5925 36.6643 18.4083 36.3037C18.224 35.9408 18.0198 35.5757 17.7955 35.2105C17.5713 34.8432 17.3382 34.4893 17.0896 34.1443C16.8432 33.7993 16.5923 33.4902 16.3414 33.2102L17.9798 30.4214V30.4169Z" fill="#CF9F67"/>
<path d="M22.2866 25.0365L23.017 25.8608C22.2489 26.7254 21.5784 27.5072 21.0079 28.2038C21.2765 28.4502 21.8271 28.9946 22.6662 29.8368C23.6009 30.8246 24.3157 31.537 24.8063 31.9738L23.8362 33.161C23.5742 32.8541 22.8594 32.0701 21.6894 30.8022C20.706 29.7629 19.9423 29.017 19.4028 28.5645L22.2866 25.0342V25.0365Z" fill="#CF9F67"/>
<path d="M31.6794 25.0365L30.3896 26.1901C30.1543 25.9235 29.6836 25.5293 28.9777 25.0073L27.1173 26.6717C27.1995 26.9696 27.2772 27.2361 27.3526 27.4691C27.5236 28.0291 27.6657 28.3808 27.7789 28.5264L26.5645 29.6105C26.4913 29.5142 26.2116 28.3673 25.7232 26.1766C25.2348 23.9859 24.9373 22.8099 24.8285 22.6553L26.3492 21.2957C26.5934 21.5712 27.477 22.1894 29.0021 23.1504C30.5272 24.1113 31.4241 24.7408 31.6839 25.0365H31.6794ZM28.2406 24.4182C26.842 23.4326 26.0939 22.8883 25.9962 22.7785L25.9318 22.8368C25.9962 22.9309 26.2759 23.8985 26.771 25.7353L28.2384 24.4205L28.2406 24.4182Z" fill="#CF9F67"/>
<path d="M33.6152 16.2893L34.0348 17.2659C33.4021 17.6086 32.8204 17.9514 32.2832 18.2896C32.4008 18.5651 32.6894 19.1923 33.149 20.1712C33.6862 21.3203 34.1924 22.3104 34.6697 23.1414L33.3421 23.9814C33.1579 23.5379 32.705 22.5165 31.9813 20.9104C31.6638 20.2384 31.3663 19.6157 31.0822 19.049C30.6537 19.3222 30.0721 19.7187 29.3461 20.2429L28.9354 19.255L33.6152 16.287V16.2893Z" fill="#CF9F67"/>
<path d="M39.2273 13.8298L39.4871 14.8803C38.4881 15.2566 37.5868 15.6195 36.7787 15.9712C36.8941 16.3005 37.0562 16.8112 37.276 17.5011C37.9642 17.201 38.6968 16.865 39.4715 16.4886L39.7557 17.4765C38.9809 17.7766 38.2417 18.0835 37.5335 18.3882C37.72 19.0266 37.9064 19.6179 38.0885 20.1712C38.9942 19.777 39.9533 19.3312 40.9678 18.8294L41.2231 19.8867L37.0073 21.7168C36.9052 21.2733 36.6122 20.1958 36.1327 18.4733C35.7974 17.3286 35.4711 16.3677 35.1581 15.5904L39.2251 13.8275L39.2273 13.8298Z" fill="#CF9F67"/>
<path d="M46.6488 11.8496C46.671 11.9347 46.4268 12.4611 45.9185 13.4266C45.4123 14.3898 45.0837 14.9699 44.935 15.1603L44.9483 15.232C45.2014 15.3933 45.712 15.8838 46.4712 16.7014C47.2305 17.519 47.6301 18.0007 47.6656 18.1463L45.8985 18.583C45.8674 18.4554 45.6054 18.0858 45.1104 17.4698C44.6153 16.8538 44.2801 16.4662 44.1069 16.3094L44.0204 16.3296C43.8849 16.576 43.6807 17.1002 43.4054 17.8999C43.1301 18.704 43.008 19.1677 43.0369 19.2887L41.3608 19.7031C41.3408 19.6112 41.6139 18.9795 42.1911 17.808C42.7683 16.6342 43.1412 15.9376 43.31 15.7114L43.2989 15.6397C43.0946 15.4918 42.6595 15.0842 41.9957 14.4189C41.3297 13.7514 40.9856 13.3638 40.959 13.2586L42.6484 12.8397C42.675 12.9539 42.8993 13.2675 43.3122 13.776C43.7251 14.289 44.0004 14.5981 44.1358 14.7034L44.2179 14.6832C44.3356 14.4883 44.5199 14.0582 44.7707 13.3862C45.0216 12.7165 45.1348 12.329 45.1104 12.2282L46.6555 11.8496H46.6488Z" fill="#CF9F67"/>
<path d="M68.6713 91.6518L69.5659 97.4691L66.9663 98.3136L64.2113 93.1011L66.0162 92.5142C66.711 93.9702 67.2727 95.2112 67.6989 96.2371C67.4481 95.1418 67.2394 94.1651 67.0751 93.305L66.8664 92.2365L68.6713 91.6496V91.6518Z" fill="white"/>
<path d="M74.6075 92.559C74.8606 93.0832 75.0271 93.464 75.1026 93.6947C75.1781 93.9277 75.1825 94.1718 75.1159 94.4294C75.0493 94.687 74.9072 94.929 74.6897 95.1552C74.4721 95.3814 74.1902 95.5808 73.8394 95.7533C73.5064 95.9168 73.1867 96.0176 72.8782 96.0579C72.5696 96.096 72.2899 96.0646 72.0412 95.9616C71.7926 95.8586 71.5994 95.7062 71.464 95.5069C71.3286 95.3075 71.131 94.9379 70.8713 94.4003L70.4384 93.5066C70.1853 92.9824 70.0188 92.6038 69.9433 92.3709C69.8678 92.1379 69.8634 91.8938 69.93 91.6362C69.9966 91.3786 70.1387 91.1366 70.3563 90.9104C70.5738 90.6842 70.8557 90.4848 71.2065 90.3123C71.5395 90.1488 71.8592 90.048 72.1678 90.0077C72.4763 89.9696 72.7561 90.001 73.0047 90.104C73.2533 90.207 73.4465 90.3594 73.5819 90.5587C73.7173 90.7581 73.9149 91.1277 74.1746 91.6653L74.6075 92.559ZM72.1611 91.6384C72.0434 91.3965 71.9524 91.2486 71.888 91.1949C71.8237 91.1434 71.7415 91.1411 71.6416 91.1904C71.5573 91.233 71.5062 91.2912 71.4884 91.3674C71.4707 91.4435 71.5262 91.6182 71.6572 91.887L72.836 94.3264C72.9825 94.6288 73.0868 94.8102 73.1512 94.8662C73.2156 94.9222 73.3 94.9245 73.4088 94.8707C73.5198 94.817 73.5686 94.7408 73.5597 94.6445C73.5508 94.5482 73.4731 94.3466 73.3244 94.0374L72.1633 91.6362L72.1611 91.6384Z" fill="white"/>
<path d="M75.6798 87.8483L78.204 91.7392L79.1186 91.1344L79.7491 92.1065L77.3293 93.7037L74.1747 88.8406L75.6776 87.8461L75.6798 87.8483Z" fill="white"/>
<path d="M81.8447 85.6755L80.4728 86.847L80.1353 86.4438C79.9222 86.1907 79.7757 86.0429 79.6958 86.0003C79.6159 85.9578 79.5271 85.9802 79.4294 86.063C79.345 86.1347 79.3095 86.2131 79.325 86.2938C79.3406 86.3744 79.4427 86.529 79.6336 86.7552L81.4207 88.8854C81.5872 89.0848 81.7138 89.2035 81.7959 89.2394C81.8803 89.2775 81.9668 89.255 82.0579 89.1789C82.1578 89.0938 82.1955 88.9997 82.1711 88.8989C82.1467 88.7981 82.049 88.6435 81.8758 88.4374L81.434 87.911L81.1565 88.1485L80.5904 87.4742L82.1977 86.1034L84.1957 88.4845L83.3344 89.2214L82.9414 89.0109C82.9636 89.2282 82.9303 89.432 82.846 89.6224C82.7616 89.8128 82.6217 89.9898 82.4286 90.1555C82.1977 90.3526 81.9424 90.4893 81.6627 90.5677C81.383 90.6461 81.1321 90.6595 80.9101 90.6102C80.6903 90.561 80.5016 90.4714 80.3485 90.3392C80.1953 90.2093 79.9888 89.992 79.7335 89.6851L78.628 88.3658C78.2728 87.9424 78.0419 87.6109 77.9353 87.3734C77.8288 87.136 77.8376 86.8269 77.9597 86.4461C78.0841 86.0653 78.3482 85.7024 78.7567 85.353C79.1585 85.0102 79.5515 84.7952 79.9311 84.7078C80.3107 84.6205 80.6237 84.6384 80.8635 84.7594C81.1033 84.8826 81.3763 85.1245 81.6827 85.4874L81.8425 85.68L81.8447 85.6755Z" fill="white"/>
<path d="M83.4143 80.8259L88.396 83.9261L87.1728 85.3082L86.3359 84.6855L85.9074 85.1693L86.6067 85.9466L85.3679 87.3443L81.6827 82.7815L83.4143 80.8259ZM85.5411 84.0336C84.995 83.664 84.3312 83.1891 83.5542 82.6135C84.2557 83.4938 84.7796 84.121 85.1282 84.4995L85.5411 84.0336Z" fill="white"/>
<path d="M86.4047 76.7155L87.3482 77.383L86.7355 78.2656L90.5073 80.9357L89.475 82.4208L85.7032 79.7507L85.0927 80.6288L84.1492 79.9613L86.4047 76.7155Z" fill="white"/>
<path d="M86.8953 75.8531L88.3116 73.1875L89.3284 73.7363L88.7623 74.8025L89.7258 75.3222L90.2563 74.3232L91.222 74.8451L90.6915 75.8441L91.8081 76.4489L92.4319 75.2752L93.4487 75.824L91.9768 78.5971L86.8975 75.8509L86.8953 75.8531Z" fill="white"/>
<path d="M92.6672 69.0368L92.0323 70.7347L91.0955 70.3785C90.8224 70.2755 90.647 70.2285 90.5649 70.2397C90.4827 70.2509 90.4206 70.3181 90.374 70.4413C90.3207 70.5801 90.3296 70.6854 90.3984 70.7549C90.4672 70.8243 90.6359 70.9094 90.909 71.0147L93.4131 71.9689C93.6751 72.0697 93.8527 72.1145 93.9482 72.1078C94.0414 72.1011 94.1147 72.0317 94.1635 71.8995C94.2101 71.7741 94.2012 71.6755 94.1369 71.6061C94.0725 71.5366 93.8904 71.4448 93.5952 71.3328L92.9181 71.0752L93.553 69.3773L93.7639 69.4579C94.3211 69.6707 94.6985 69.8678 94.8983 70.0537C95.0959 70.2374 95.2224 70.5264 95.2757 70.9206C95.329 71.3148 95.2668 71.7494 95.087 72.2288C94.9005 72.7261 94.6741 73.1069 94.4033 73.3734C94.1324 73.64 93.8483 73.7744 93.5463 73.7789C93.2444 73.7833 92.8293 73.6848 92.3009 73.4832L90.7269 72.8829C90.3384 72.735 90.0543 72.6073 89.87 72.5021C89.688 72.3968 89.537 72.2288 89.4171 72.0003C89.2973 71.7718 89.2395 71.4963 89.2418 71.1737C89.244 70.8512 89.315 70.5062 89.4527 70.1366C89.6391 69.6371 89.8745 69.254 90.1542 68.9897C90.4339 68.7254 90.7136 68.5865 90.9911 68.5753C91.2686 68.5641 91.6571 68.6537 92.1611 68.8464L92.6739 69.0413L92.6672 69.0368Z" fill="white"/>
<path d="M91.5195 62.9462L97.1494 64.1805L96.7676 65.9523L94.4033 65.4349L94.29 65.9657L96.6543 66.4832L96.2725 68.255L90.6426 67.0208L91.0244 65.2489L93.038 65.6902L93.1512 65.1593L91.1376 64.7181L91.5195 62.9462Z" fill="white"/>
</g>
<defs>
<linearGradient id="paint0_linear_99_395" x1="32.9137" y1="55.8701" x2="47.7255" y2="55.8701" gradientUnits="userSpaceOnUse">
<stop stop-color="white"/>
<stop offset="0.86" stop-color="white"/>
<stop offset="1" stop-color="white"/>
</linearGradient>
<linearGradient id="paint1_linear_99_395" x1="44.0625" y1="56.5734" x2="101.523" y2="56.5734" gradientUnits="userSpaceOnUse">
<stop stop-color="white"/>
<stop offset="0.86" stop-color="white"/>
<stop offset="1" stop-color="white"/>
</linearGradient>
<clipPath id="clip0_99_395">
<rect width="111" height="112" fill="white"/>
</clipPath>
</defs>
</svg>
