<svg width="703" height="528" viewBox="0 0 703 528" fill="none" xmlns="http://www.w3.org/2000/svg">
<g opacity="0.4">
<path d="M212.982 340.943L145.348 221.098L114.256 166L93 203.117L190.989 372L213 340.943H212.982Z" fill="url(#paint0_linear_102_608)"/>
<path d="M595.268 45.1515V108.93C588.174 111.466 580.792 114.29 573.177 117.473C564.319 121.178 555.983 124.991 548.223 128.822C538.933 133.445 529.247 138.661 519.29 144.524C512.125 148.733 505.319 152.996 498.892 157.204C492.284 161.593 485.569 166.251 478.691 171.251C471.093 176.755 463.874 182.259 457.05 187.655C446.446 196.144 435.823 204.633 425.201 213.141C419.602 217.35 413.858 221.882 408.025 226.702C400.769 232.71 394.018 238.681 387.734 244.508C373.997 258.178 360.26 271.847 346.523 285.516L311.235 323.107L271.5 370.698L237.67 413.073L204.345 455.772L184 486.06L211.042 525C217.65 514.856 226.382 501.78 236.968 486.798C253.1 463.956 266.117 447.157 274.435 436.473C283.113 425.304 294.779 410.339 311.073 391.22C324.72 375.177 336.855 361.849 346.361 351.651L377.004 319.798L394.666 301.956L417.045 280.786L434.995 264.635L452.513 248.933L472.102 232.17L495.489 214.184L524.547 192.942L551.158 176.863L580.882 161.215L609.887 147.438L629.547 139.218L647.84 132.941L648.614 77.0227L650 24C599.625 43.9285 595.268 45.1875 595.268 45.1875V45.1515Z" fill="url(#paint1_linear_102_608)"/>
<path opacity="0.5" d="M146 220.837L212.597 341L234 309.951L165.137 191L146.018 220.855L146 220.837Z" fill="#DC2627"/>
<path opacity="0.5" d="M701.864 59L649.185 76.8854L648.41 132.883C642.352 134.756 634.185 137.512 624.648 141.294C622.611 142.105 615.382 145.005 600.724 151.867C591.981 155.956 578.928 162.134 561.963 171.265C549.722 177.876 541.753 182.162 531.189 188.881C521.237 195.221 513.701 200.876 498.99 211.917C485.162 222.292 475.409 229.604 462.717 240.231C459.453 242.969 462.446 240.519 428.949 270.4C425.416 273.552 416.185 281.802 405.386 291.996C399.905 297.183 396.57 300.425 394.875 302.136C391.756 305.288 383.572 313.682 371.114 326.092C368.734 328.451 366.787 330.396 365.489 331.693C331.938 366.672 297.9 405.864 264.548 449.722C254.974 462.312 245.78 474.848 237 487.258L264.205 528C286.56 496.516 306.626 470.832 322.347 451.487C332.262 439.294 344.035 424.884 360.802 406.387C376.378 389.204 388.007 377.658 406.774 358.981C429.202 336.682 443.552 322.381 464.718 303.613C477.283 292.446 494.555 277.659 515.774 261.088C537.012 244.518 550.605 233.909 571.14 221.229C585.022 212.656 596.65 206.442 615.706 196.301C631.229 188.016 641.216 182.703 654.9 176.489C668.025 170.509 684.142 163.917 703 157.667C702.603 124.778 702.243 91.8889 701.9 59.018L701.864 59Z" fill="#DC2627"/>
<path opacity="0.5" d="M191.11 371.219C216.29 336.046 235.546 308.607 248.75 289.623C258.179 276.084 266.001 264.763 278.194 249.132C289.302 234.908 298.28 224.524 315.783 204.296C333.251 184.122 341.957 174.044 352.741 162.561C363.164 151.437 379.023 134.689 401.602 114.605C416.848 101.048 429.203 91.2949 437.295 84.913C446.761 77.4493 457.165 69.3005 471.742 59.3669C483.917 51.074 493.057 45.6114 495.423 44.1872C506.586 37.5348 515.347 33.0097 521.85 29.6745C529.563 25.7082 538.161 21.3094 550.047 16.1893C562.077 10.9972 571.289 7.75214 573.854 6.85073C582.326 3.8941 589.75 1.6586 595.783 0C595.855 35.9843 595.928 71.9507 596 107.953C582.055 112.911 566.069 119.401 548.819 127.874C542.93 130.777 523.349 140.584 499.325 156.323C483.899 166.455 472.88 174.892 457.346 186.845C445.695 195.823 437.277 202.673 425.392 212.391C406.443 227.823 396.978 235.557 387.802 243.832C374.923 255.424 365.259 265.412 346.455 284.936C335.852 295.933 324.345 307.868 311.051 322.615C304.006 330.421 290.603 345.511 238.364 411.35C209.011 448.326 203.7 455.645 200.16 460.549C199.148 461.937 191.724 473.205 183.379 485.969C172.631 502.393 160.366 521.286 158.199 525L0 251.025L60.7831 147.651L90.6599 198.941L191.092 371.201L191.11 371.219Z" fill="#336FD2"/>
</g>
<defs>
<linearGradient id="paint0_linear_102_608" x1="93" y1="269.018" x2="212.982" y2="269.018" gradientUnits="userSpaceOnUse">
<stop stop-color="white"/>
<stop offset="0.86" stop-color="white"/>
<stop offset="1" stop-color="white"/>
</linearGradient>
<linearGradient id="paint1_linear_102_608" x1="184.018" y1="274.473" x2="650.018" y2="274.473" gradientUnits="userSpaceOnUse">
<stop stop-color="white"/>
<stop offset="0.86" stop-color="white"/>
<stop offset="1" stop-color="white"/>
</linearGradient>
</defs>
</svg>
